<?xml version="1.0" encoding="UTF-8" standalone="no"?> <svg width="64" height="64" viewBox="0 0 64 64" fill="none" xmlns="http://www.w3.org/2000/svg">
<path d="M57 10.75H47.31V7C47.31 5.87283 46.8622 4.79183 46.0652 3.9948C45.2682 3.19777 44.1872 2.75 43.06 2.75H7C5.87364 2.75264 4.79417 3.20126 3.99771 3.99771C3.20126 4.79417 2.75264 5.87364 2.75 7V57C2.75264 58.1264 3.20126 59.2058 3.99771 60.0023C4.79417 60.7987 5.87364 61.2474 7 61.25H51.25C53.9022 61.25 56.4457 60.1964 58.3211 58.3211C60.1964 56.4457 61.25 53.9022 61.25 51.25V15C61.2474 13.8736 60.7987 12.7942 60.0023 11.9977C59.2058 11.2013 58.1264 10.7526 57 10.75ZM14.54 11C14.54 10.6685 14.6717 10.3505 14.9061 10.1161C15.1405 9.8817 15.4585 9.75 15.79 9.75H33.79C34.1145 9.76039 34.4223 9.89666 34.6481 10.13C34.874 10.3633 35.0002 10.6753 35 11V21.29C35 21.6215 34.8683 21.9395 34.6339 22.1739C34.3995 22.4083 34.0815 22.54 33.75 22.54H15.75C15.4185 22.54 15.1005 22.4083 14.8661 22.1739C14.6317 21.9395 14.5 21.6215 14.5 21.29L14.54 11ZM9.54 26.18H17.89C18.2215 26.18 18.5395 26.3117 18.7739 26.5461C19.0083 26.7805 19.14 27.0985 19.14 27.43C19.14 27.7615 19.0083 28.0795 18.7739 28.3139C18.5395 28.5483 18.2215 28.68 17.89 28.68H9.57C9.23848 28.68 8.92054 28.5483 8.68612 28.3139C8.4517 28.0795 8.32 27.7615 8.32 27.43C8.32 27.0985 8.4517 26.7805 8.68612 26.5461C8.92054 26.3117 9.23848 26.18 9.57 26.18H9.54ZM39.54 56.11H9.54C9.20848 56.11 8.89054 55.9783 8.65612 55.7439C8.4217 55.5095 8.29 55.1915 8.29 54.86C8.29 54.5285 8.4217 54.2105 8.65612 53.9761C8.89054 53.7417 9.20848 53.61 9.54 53.61H39.54C39.8715 53.61 40.1895 53.7417 40.4239 53.9761C40.6583 54.2105 40.79 54.5285 40.79 54.86C40.79 55.1915 40.6583 55.5095 40.4239 55.7439C40.1895 55.9783 39.8715 56.11 39.54 56.11V56.11ZM39.54 50.62H9.54C9.20848 50.62 8.89054 50.4883 8.65612 50.2539C8.4217 50.0195 8.29 49.7015 8.29 49.37C8.29 49.0385 8.4217 48.7205 8.65612 48.4861C8.89054 48.2517 9.20848 48.12 9.54 48.12H39.54C39.8715 48.12 40.1895 48.2517 40.4239 48.4861C40.6583 48.7205 40.79 49.0385 40.79 49.37C40.79 49.7015 40.6583 50.0195 40.4239 50.2539C40.1895 50.4883 39.8715 50.62 39.54 50.62V50.62ZM39.54 45.14H9.54C9.20848 45.14 8.89054 45.0083 8.65612 44.7739C8.4217 44.5395 8.29 44.2215 8.29 43.89C8.29 43.5585 8.4217 43.2405 8.65612 43.0061C8.89054 42.7717 9.20848 42.64 9.54 42.64H39.54C39.8715 42.64 40.1895 42.7717 40.4239 43.0061C40.6583 43.2405 40.79 43.5585 40.79 43.89C40.79 44.2215 40.6583 44.5395 40.4239 44.7739C40.1895 45.0083 39.8715 45.14 39.54 45.14V45.14ZM39.54 39.65H9.54C9.20848 39.65 8.89054 39.5183 8.65612 39.2839C8.4217 39.0495 8.29 38.7315 8.29 38.4C8.29 38.0685 8.4217 37.7505 8.65612 37.5161C8.89054 37.2817 9.20848 37.15 9.54 37.15H39.54C39.8715 37.15 40.1895 37.2817 40.4239 37.5161C40.6583 37.7505 40.79 38.0685 40.79 38.4C40.79 38.7315 40.6583 39.0495 40.4239 39.2839C40.1895 39.5183 39.8715 39.65 39.54 39.65V39.65ZM39.54 34.16H9.54C9.20848 34.16 8.89054 34.0283 8.65612 33.7939C8.4217 33.5595 8.29 33.2415 8.29 32.91C8.29 32.5785 8.4217 32.2605 8.65612 32.0261C8.89054 31.7917 9.20848 31.66 9.54 31.66H39.54C39.8715 31.66 40.1895 31.7917 40.4239 32.0261C40.6583 32.2605 40.79 32.5785 40.79 32.91C40.79 33.2415 40.6583 33.5595 40.4239 33.7939C40.1895 34.0283 39.8715 34.16 39.54 34.16V34.16ZM58.75 51.25C58.75 53.2391 57.9598 55.1468 56.5533 56.5533C55.1468 57.9598 53.2391 58.75 51.25 58.75H47.31V13.25H57C57.4633 13.2526 57.9069 13.4378 58.2345 13.7655C58.5622 14.0931 58.7474 14.5367 58.75 15V51.25Z" fill="black"/>
</svg>
